<svg width="32" height="41" viewBox="0 0 32 41" fill="none" xmlns="http://www.w3.org/2000/svg">
<path d="M25.5 20.5C25.5 21.0056 25.342 21.4904 25.0607 21.8479C24.7794 22.2054 24.3978 22.4063 24 22.4063H8C7.60218 22.4063 7.22064 22.2054 6.93934 21.8479C6.65804 21.4904 6.5 21.0056 6.5 20.5C6.5 19.9944 6.65804 19.5096 6.93934 19.1521C7.22064 18.7946 7.60218 18.5938 8 18.5938H24C24.3978 18.5938 24.7794 18.7946 25.0607 19.1521C25.342 19.5096 25.5 19.9944 25.5 20.5ZM29 10.9688H3C2.60218 10.9688 2.22064 11.1696 1.93934 11.5271C1.65804 11.8846 1.5 12.3694 1.5 12.875C1.5 13.3806 1.65804 13.8654 1.93934 14.2229C2.22064 14.5804 2.60218 14.7813 3 14.7813H29C29.3978 14.7813 29.7794 14.5804 30.0607 14.2229C30.342 13.8654 30.5 13.3806 30.5 12.875C30.5 12.3694 30.342 11.8846 30.0607 11.5271C29.7794 11.1696 29.3978 10.9688 29 10.9688ZM19 26.2188H13C12.6022 26.2188 12.2206 26.4196 11.9393 26.7771C11.658 27.1346 11.5 27.6194 11.5 28.125C11.5 28.6306 11.658 29.1154 11.9393 29.4729C12.2206 29.8304 12.6022 30.0313 13 30.0313H19C19.3978 30.0313 19.7794 29.8304 20.0607 29.4729C20.342 29.1154 20.5 28.6306 20.5 28.125C20.5 27.6194 20.342 27.1346 20.0607 26.7771C19.7794 26.4196 19.3978 26.2188 19 26.2188Z" fill="white"/>
</svg>
