<svg width="28" height="28" viewBox="0 0 28 28" fill="none" xmlns="http://www.w3.org/2000/svg">
<path d="M24.7734 6.16875L14.2734 2.66875C14.0952 2.61392 13.9047 2.61392 13.7265 2.66875L3.23746 6.16875H3.21559L3.10621 6.22343H3.09527L2.9859 6.28906C2.9859 6.3 2.97496 6.3 2.96402 6.31093L2.87652 6.3875L2.79996 6.475C2.79996 6.48593 2.78902 6.48593 2.78902 6.49687L2.7234 6.59531C2.7234 6.60625 2.7234 6.60625 2.71246 6.61718L2.66871 6.71562L2.6359 6.83593V6.86875C2.62511 6.9116 2.62142 6.95594 2.62496 7V15.75C2.62496 15.9821 2.71715 16.2046 2.88124 16.3687C3.04534 16.5328 3.2679 16.625 3.49996 16.625C3.73203 16.625 3.95459 16.5328 4.11868 16.3687C4.28277 16.2046 4.37496 15.9821 4.37496 15.75V8.21406L8.04996 9.43906C7.35954 10.5442 6.99555 11.8219 6.99996 13.125C7.00036 14.3101 7.30163 15.4757 7.87554 16.5125C8.44944 17.5494 9.27719 18.4235 10.2812 19.0531C8.19477 19.8424 6.41356 21.2751 5.19527 23.1437C5.0711 23.3401 5.02903 23.5774 5.07813 23.8045C5.12723 24.0316 5.26357 24.2303 5.45777 24.3578C5.55308 24.421 5.65997 24.4646 5.77225 24.4861C5.88453 24.5076 5.99996 24.5067 6.11187 24.4833C6.22378 24.4599 6.32993 24.4145 6.42417 24.3498C6.51842 24.2851 6.59888 24.2023 6.6609 24.1062C7.4551 22.8829 8.54252 21.8775 9.82426 21.1814C11.106 20.4854 12.5414 20.1208 14 20.1208C15.4585 20.1208 16.8939 20.4854 18.1757 21.1814C19.4574 21.8775 20.5448 22.8829 21.339 24.1062C21.4189 24.2275 21.5277 24.327 21.6556 24.3958C21.7836 24.4645 21.9266 24.5003 22.0718 24.5C22.2395 24.5018 22.4036 24.4521 22.5422 24.3578C22.7364 24.2303 22.8727 24.0316 22.9218 23.8045C22.9709 23.5774 22.9288 23.3401 22.8046 23.1437C21.5864 21.2751 19.8052 19.8424 17.7187 19.0531C18.7227 18.4235 19.5505 17.5494 20.1244 16.5125C20.6983 15.4757 20.9996 14.3101 21 13.125C21.0044 11.8219 20.6404 10.5442 19.95 9.43906L24.7734 7.83125C24.9485 7.77371 25.1009 7.66237 25.2089 7.5131C25.317 7.36384 25.3752 7.18427 25.3752 7C25.3752 6.81572 25.317 6.63615 25.2089 6.48689C25.1009 6.33762 24.9485 6.22628 24.7734 6.16875ZM19.25 13.125C19.25 14.5174 18.6968 15.8527 17.7123 16.8373C16.7277 17.8219 15.3923 18.375 14 18.375C12.6076 18.375 11.2722 17.8219 10.2877 16.8373C9.30308 15.8527 8.74996 14.5174 8.74996 13.125C8.75207 12.0047 9.10808 10.9137 9.76715 10.0078L13.7265 11.3312C13.9041 11.3897 14.0958 11.3897 14.2734 11.3312L18.2328 10.0078C18.8918 10.9137 19.2479 12.0047 19.25 13.125ZM18.2328 8.17031H18.2218L14 9.58125L9.77809 8.17031H9.76715L6.26715 7L14 4.41875L21.7328 7L18.2328 8.17031Z" fill="#00FFF5"/>
</svg>
