<svg width="38" height="34" viewBox="0 0 38 34" fill="none" xmlns="http://www.w3.org/2000/svg">
<path d="M17.4166 2.83331C25.2826 2.83331 31.6666 8.54531 31.6666 15.5833C31.6666 22.6213 25.2826 28.3333 17.4166 28.3333C9.55063 28.3333 3.16663 22.6213 3.16663 15.5833C3.16663 8.54531 9.55063 2.83331 17.4166 2.83331ZM17.4166 25.5C23.5394 25.5 28.5 21.0616 28.5 15.5833C28.5 10.1036 23.5394 5.66665 17.4166 5.66665C11.2923 5.66665 6.33329 10.1036 6.33329 15.5833C6.33329 21.0616 11.2923 25.5 17.4166 25.5ZM30.8512 25.6006L35.3305 29.6069L33.09 31.6115L28.6124 27.6037L30.8512 25.6006Z" fill="#B0B0B0"/>
</svg>
