<svg width="40" height="40" viewBox="0 0 40 40" fill="none" xmlns="http://www.w3.org/2000/svg">
<path d="M28.3333 15C28.3333 12.6984 27.4 10.615 25.8933 9.10835C24.385 7.60002 22.3017 6.66669 20 6.66669C17.6983 6.66669 15.615 7.60002 14.1067 9.10835C12.6 10.615 11.6667 12.6984 11.6667 15C11.6667 17.3017 12.6 19.385 14.1067 20.8917C15.615 22.4 17.6983 23.3334 20 23.3334C22.3017 23.3334 24.385 22.4 25.8933 20.8917C26.6681 20.1188 27.2825 19.2004 27.7012 18.1893C28.12 17.1782 28.3348 16.0944 28.3333 15ZM10 31.6667C10 33.3334 13.75 35 20 35C25.8633 35 30 33.3334 30 31.6667C30 28.3334 26.0767 25 20 25C13.75 25 10 28.3334 10 31.6667Z" fill="#00FFF5"/>
</svg>
