<svg width="14" height="12" viewBox="0 0 14 12" fill="none" xmlns="http://www.w3.org/2000/svg">
<path d="M8.04301 0V1.33333H10.668L3.48043 7.88667L4.5114 8.82667L11.6989 2.27333V4.66667H13.1613V0M11.6989 10.6667H1.46237V1.33333H6.58065V0H1.46237C1.07452 0 0.702564 0.140476 0.428317 0.390524C0.15407 0.640573 0 0.979711 0 1.33333V10.6667C0 11.0203 0.15407 11.3594 0.428317 11.6095C0.702564 11.8595 1.07452 12 1.46237 12H11.6989C12.0868 12 12.4587 11.8595 12.733 11.6095C13.0072 11.3594 13.1613 11.0203 13.1613 10.6667V6H11.6989V10.6667Z" fill="white"/>
</svg>
