<svg width="28" height="24" viewBox="0 0 28 24" fill="none" xmlns="http://www.w3.org/2000/svg">
<path d="M11.6667 12C11.6667 12.5304 11.9125 13.0391 12.3501 13.4142C12.7877 13.7893 13.3812 14 14 14C14.6189 14 15.2124 13.7893 15.6499 13.4142C16.0875 13.0391 16.3334 12.5304 16.3334 12C16.3334 11.4696 16.0875 10.9609 15.6499 10.5858C15.2124 10.2107 14.6189 10 14 10C13.3812 10 12.7877 10.2107 12.3501 10.5858C11.9125 10.9609 11.6667 11.4696 11.6667 12Z" stroke="white" stroke-width="2" stroke-linecap="round" stroke-linejoin="round"/>
<path d="M25.6667 12C22.5552 16.667 18.6667 19 14 19C9.33334 19 5.44484 16.667 2.33334 12C5.44484 7.333 9.33334 5 14 5C18.6667 5 22.5552 7.333 25.6667 12Z" stroke="white" stroke-width="2" stroke-linecap="round" stroke-linejoin="round"/>
</svg>
